<svg width="29" height="25" viewBox="0 0 29 25" fill="none" xmlns="http://www.w3.org/2000/svg">
<path d="M7.75 9.62823H14.5V1H8.86323L7.75 9.62823Z" stroke="white" stroke-width="0.692308" stroke-linecap="round" stroke-linejoin="round"/>
<path d="M8.86323 1H4.21369C3.90435 1.00008 3.60394 1.10376 3.36039 1.29448C3.11683 1.48521 2.94417 1.752 2.86992 2.05231L1 9.62823H7.75M14.5 9.62823C14.5 10.5233 14.1444 11.3818 13.5115 12.0147C12.8786 12.6477 12.0201 13.0032 11.125 13.0032C10.2299 13.0032 9.37145 12.6477 8.73851 12.0147C8.10558 11.3818 7.75 10.5233 7.75 9.62823M7.75 9.62823C7.75 10.5233 7.39442 11.3818 6.76149 12.0147C6.12855 12.6477 5.27011 13.0032 4.375 13.0032C3.47989 13.0032 2.62145 12.6477 1.98851 12.0147C1.35558 11.3818 1 10.5233 1 9.62823M20.1368 1H24.7863C25.0957 1.00008 25.3961 1.10376 25.6396 1.29448C25.8832 1.48521 26.0558 1.752 26.1301 2.05231L28 9.62823H21.25M14.5 9.62823C14.5 10.5233 14.8556 11.3818 15.4885 12.0147C16.1215 12.6477 16.9799 13.0032 17.875 13.0032C18.7701 13.0032 19.6286 12.6477 20.2615 12.0147C20.8944 11.3818 21.25 10.5233 21.25 9.62823M21.25 9.62823C21.25 10.5233 21.6056 11.3818 22.2385 12.0147C22.8714 12.6477 23.7299 13.0032 24.625 13.0032C25.5201 13.0032 26.3786 12.6477 27.0115 12.0147C27.6444 11.3818 28 10.5233 28 9.62823M21.25 9.62823H14.5V1H20.1368L21.25 9.62823V9.62823Z" stroke="white" stroke-width="0.692308" stroke-linecap="round" stroke-linejoin="round"/>
<path d="M2.95605 12.6882V23.0244C2.95605 23.3916 3.10193 23.7438 3.3616 24.0035C3.62127 24.2631 3.97345 24.409 4.34067 24.409H24.6599C25.0271 24.409 25.3793 24.2631 25.639 24.0035C25.8986 23.7438 26.0445 23.3916 26.0445 23.0244V12.6882" stroke="white" stroke-width="0.692308" stroke-linecap="round" stroke-linejoin="round"/>
<path d="M21.0772 19.3288H23.8159C23.8247 19.6903 23.7621 20.0499 23.6319 20.3872C23.5016 20.7246 23.3062 21.0329 23.0567 21.2947C22.8073 21.5565 22.5087 21.7665 22.1781 21.9129C21.8475 22.0593 21.4913 22.1391 21.1298 22.1479L21.0765 22.1486C20.3285 22.1486 19.6112 21.8514 19.0823 21.3226C18.5535 20.7937 18.2563 20.0764 18.2563 19.3284C18.2563 18.5805 18.5535 17.8632 19.0823 17.3343C19.6112 16.8054 20.3285 16.5083 21.0765 16.5083C21.5672 16.5063 22.0498 16.6343 22.4749 16.8794" stroke="white" stroke-width="0.692308" stroke-linecap="round" stroke-linejoin="round"/>
</svg>
