<svg width="22" height="25" viewBox="0 0 22 25" fill="none" xmlns="http://www.w3.org/2000/svg">
<path d="M9.45094 0.553443C9.88786 0.195559 10.4352 0 11 0C11.5648 0 12.1121 0.195559 12.5491 0.553443L21.0741 7.50415C21.3641 7.74197 21.5977 8.04131 21.7578 8.38051C21.918 8.71971 22.0007 9.09028 22 9.46538V22.0733C22 23.4625 20.8922 24.5884 19.525 24.5884H16.225C14.8578 24.5884 13.75 23.4625 13.75 22.0733V16.0149C13.75 15.5523 13.3812 15.177 12.925 15.177H9.075C8.61947 15.177 8.25 15.5523 8.25 16.0149V22.074C8.25 23.4632 7.14224 24.5891 5.775 24.5891H2.475C1.10842 24.5884 4.42384e-06 23.4625 4.42384e-06 22.0733V9.46538C-0.000696988 9.09028 0.0820182 8.71971 0.242162 8.38051C0.402305 8.04131 0.635869 7.74197 0.925945 7.50415L9.45094 0.553443Z" fill="black"/>
</svg>
