<svg width="24" height="19" viewBox="0 0 24 19" fill="none" xmlns="http://www.w3.org/2000/svg">
<path d="M16.8225 9.84835H14.8081L14.2482 8.44868C13.6729 7.00965 12.2998 6.08002 10.7497 6.08002H6.4767C4.92697 6.08002 3.55355 7.00965 2.97787 8.44868L2.418 9.84835H0.403964C0.14119 9.84835 -0.0516005 10.0953 0.0123266 10.35L0.214202 11.1575C0.258951 11.3372 0.420451 11.4634 0.605839 11.4634H1.28111C0.829248 11.858 0.538211 12.4317 0.538211 13.0784V14.6934C0.538211 15.2357 0.745469 15.7253 1.07654 16.1041V17.9234C1.07654 18.5179 1.55869 19 2.15321 19H3.22988C3.8244 19 4.30654 18.5179 4.30654 17.9234V16.8467H12.9199V17.9234C12.9199 18.5179 13.402 19 13.9965 19H15.0732C15.6677 19 16.1499 18.5179 16.1499 17.9234V16.1041C16.481 15.7256 16.6882 15.2361 16.6882 14.6934V13.0784C16.6882 12.4317 16.3972 11.858 15.9456 11.4634H16.6209C16.8063 11.4634 16.9678 11.3372 17.0126 11.1575L17.2144 10.35C17.278 10.0953 17.0852 9.84835 16.8225 9.84835ZM4.97711 9.24845C5.22238 8.63542 5.81623 8.23335 6.4767 8.23335H10.7497C11.4102 8.23335 12.004 8.63542 12.2493 9.24845L12.9199 10.925H4.30654L4.97711 9.24845ZM3.22988 14.6866C2.58388 14.6866 2.15321 14.2573 2.15321 13.6133C2.15321 12.9693 2.58388 12.54 3.22988 12.54C3.87588 12.54 4.84488 13.506 4.84488 14.15C4.84488 14.794 3.87588 14.6866 3.22988 14.6866ZM13.9965 14.6866C13.3505 14.6866 12.3815 14.794 12.3815 14.15C12.3815 13.506 13.3505 12.54 13.9965 12.54C14.6425 12.54 15.0732 12.9693 15.0732 13.6133C15.0732 14.2573 14.6425 14.6866 13.9965 14.6866Z" fill="white"/>
<path d="M22.9025 3.76833H20.8882L20.3283 2.36867C19.753 0.929634 18.3799 0 16.8298 0H12.5568C11.0071 0 9.63363 0.929634 9.05795 2.36867L8.49808 3.76833H6.48404C6.22127 3.76833 6.02848 4.01529 6.0924 4.26999L6.29428 5.07749C6.33903 5.25716 6.50053 5.38333 6.68592 5.38333H7.36119C6.90933 5.778 6.61829 6.35166 6.61829 6.99833V8.61333C6.61829 9.1557 6.82555 9.64525 7.15662 10.0241V11.8433C7.15662 12.4379 7.63877 12.92 8.23329 12.92H9.30996C9.90448 12.92 10.3866 12.4379 10.3866 11.8433V10.7667H19V11.8433C19 12.4379 19.4821 12.92 20.0766 12.92H21.1533C21.7478 12.92 22.23 12.4379 22.23 11.8433V10.0241C22.561 9.64559 22.7683 9.15604 22.7683 8.61333V6.99833C22.7683 6.35166 22.4773 5.778 22.0257 5.38333H22.701C22.8864 5.38333 23.0479 5.25716 23.0926 5.07749L23.2945 4.26999C23.3581 4.01529 23.1653 3.76833 22.9025 3.76833ZM11.0572 3.16843C11.3025 2.5554 11.8963 2.15333 12.5568 2.15333H16.8298C17.4903 2.15333 18.0841 2.5554 18.3294 3.16843L19 4.845H10.3866L11.0572 3.16843ZM9.30996 8.6066C8.66396 8.6066 8.23329 8.17728 8.23329 7.5333C8.23329 6.88932 8.66396 6.46 9.30996 6.46C9.95596 6.46 10.925 7.42597 10.925 8.06995C10.925 8.71393 9.95596 8.6066 9.30996 8.6066ZM20.0766 8.6066C19.4306 8.6066 18.4616 8.71393 18.4616 8.06995C18.4616 7.42597 19.4306 6.46 20.0766 6.46C20.7226 6.46 21.1533 6.88932 21.1533 7.5333C21.1533 8.17728 20.7226 8.6066 20.0766 8.6066Z" fill="white"/>
</svg>
