<svg width="24" height="23" viewBox="0 0 24 23" fill="none" xmlns="http://www.w3.org/2000/svg">
<path d="M14.4 15.7368H9.6V13.3158H0V20.5789C0 21.2211 0.252856 21.8369 0.702944 22.2909C1.15303 22.7449 1.76348 23 2.4 23H21.6C22.2365 23 22.847 22.7449 23.2971 22.2909C23.7471 21.8369 24 21.2211 24 20.5789V13.3158H14.4V15.7368ZM21.6 4.84211H19.2V2.42105C19.2 1.77895 18.9471 1.16315 18.4971 0.70911C18.047 0.255074 17.4365 0 16.8 0H7.2C6.56348 0 5.95303 0.255074 5.50294 0.70911C5.05286 1.16315 4.8 1.77895 4.8 2.42105V4.84211H2.4C1.76348 4.84211 1.15303 5.09718 0.702944 5.55122C0.252856 6.00525 0 6.62105 0 7.26316V12.1053H24V7.26316C24 6.62105 23.7471 6.00525 23.2971 5.55122C22.847 5.09718 22.2365 4.84211 21.6 4.84211V4.84211ZM16.8 4.84211H7.2V2.42105H16.8V4.84211Z" fill="white"/>
</svg>
